<svg id="Layer_1" data-name="Layer 1" xmlns="http://www.w3.org/2000/svg" viewBox="0 0 146.93 146.9"><path d="M237.78,385.78c1.63.19,3.27.35,4.9.57a72.41,72.41,0,0,1,45.74,24.11A71.12,71.12,0,0,1,306.16,448a73.63,73.63,0,0,1-23.54,65.88,73.41,73.41,0,0,1-86.15,8.7,70.85,70.85,0,0,1-11.74-8.51A73.51,73.51,0,0,1,165,485.7a73.49,73.49,0,0,1,63.68-99.76,7.6,7.6,0,0,0,.83-.16Zm45.36,118.69c13.43-13.75,23.27-39.47,14.25-66.53a67.27,67.27,0,0,0-129.28,5.82,66.25,66.25,0,0,0,3.25,41.05A65.41,65.41,0,0,0,184,504.61c3.85-20.13,15.38-33.51,34.51-40.52-8.06-5.07-13.09-12.19-14.39-21.64a28.68,28.68,0,0,1,8-24.67,29.62,29.62,0,0,1,42.31-.68,28.48,28.48,0,0,1,8.92,20.78c.05,11.41-5.13,20.05-14.62,26.22C267.8,471.12,279.32,484.51,283.14,504.47Zm-50.56,22a69.33,69.33,0,0,0,24.93-4.41,66.21,66.21,0,0,0,19.17-11.3,1.76,1.76,0,0,0,.59-1.25,63.7,63.7,0,0,0-1-7.19,43.79,43.79,0,0,0-86.44,6.71,2.15,2.15,0,0,0,.88,2A66.73,66.73,0,0,0,232.58,526.51Zm1-111.74a23.59,23.59,0,1,0,23.52,23.87A23.59,23.59,0,0,0,233.63,414.77Z" transform="translate(-160.11 -385.78)"/></svg>