<svg id="Layer_1" data-name="Layer 1" xmlns="http://www.w3.org/2000/svg" viewBox="0 0 121.83 170.61"><path d="M296.41,264.86c-1.19-15.38,2.64-28.55,14.27-38.65a39.7,39.7,0,0,1,27-10c12.7.07,23.26,5,31.55,14.66s10.63,21.17,9.62,34h14.39c4.52,0,5.38.85,5.38,5.31q0,55.69,0,111.39c0,4.57-.73,5.27-5.36,5.27H282.08c-4.7,0-5.3-.59-5.31-5.23V270.2c0-4.63.68-5.31,5.28-5.33S291.17,264.86,296.41,264.86Zm6.48-.23h69.45c1.48-15.12-2.66-27.78-15.57-36.2-12.24-8-25.2-8.16-37.62-.41C305.8,236.35,301.49,249.15,302.89,264.63Z" transform="translate(-276.77 -216.22)"/></svg>