<svg xmlns="http://www.w3.org/2000/svg" width="43.047" height="45.917" viewBox="0 0 43.047 45.917">
  <path id="Icon_metro-calendar" data-name="Icon metro-calendar" d="M16.92,19.147h5.74v5.74H16.92Zm8.609,0h5.74v5.74h-5.74Zm8.609,0h5.74v5.74h-5.74ZM8.31,36.366h5.74v5.74H8.31Zm8.609,0h5.74v5.74H16.92Zm8.609,0h5.74v5.74h-5.74ZM16.92,27.756h5.74V33.5H16.92Zm8.609,0h5.74V33.5h-5.74Zm8.609,0h5.74V33.5h-5.74Zm-25.828,0h5.74V33.5H8.31ZM39.878,1.928V4.8h-5.74V1.928H14.05V4.8H8.31V1.928H2.571V47.845H45.618V1.928h-5.74Zm2.87,43.047H5.44V13.407H42.748Z" transform="translate(-2.571 -1.928)" fill="#fff"/>
</svg>
