<svg xmlns="http://www.w3.org/2000/svg" width="52.5" height="52.5" viewBox="0 0 52.5 52.5">
  <path id="Icon_material-language" data-name="Icon material-language" d="M29.224,3A26.25,26.25,0,1,0,55.5,29.25,26.237,26.237,0,0,0,29.224,3ZM47.415,18.75H39.671a41.079,41.079,0,0,0-3.623-9.345A21.078,21.078,0,0,1,47.415,18.75ZM29.25,8.355a36.978,36.978,0,0,1,5.014,10.4H24.236A36.978,36.978,0,0,1,29.25,8.355ZM8.933,34.5a20.534,20.534,0,0,1,0-10.5h8.873a43.353,43.353,0,0,0-.368,5.25,43.353,43.353,0,0,0,.368,5.25Zm2.153,5.25h7.744A41.079,41.079,0,0,0,22.451,49.1,20.965,20.965,0,0,1,11.085,39.75Zm7.744-21H11.085A20.965,20.965,0,0,1,22.451,9.405,41.079,41.079,0,0,0,18.829,18.75Zm10.421,31.4a36.978,36.978,0,0,1-5.014-10.4H34.264A36.978,36.978,0,0,1,29.25,50.145ZM35.393,34.5H23.108a38.621,38.621,0,0,1-.42-5.25,38.286,38.286,0,0,1,.42-5.25H35.393a38.286,38.286,0,0,1,.42,5.25A38.621,38.621,0,0,1,35.393,34.5Zm.656,14.6a41.079,41.079,0,0,0,3.623-9.345h7.744A21.078,21.078,0,0,1,36.049,49.1ZM40.7,34.5a43.353,43.353,0,0,0,.368-5.25A43.353,43.353,0,0,0,40.7,24h8.873a20.534,20.534,0,0,1,0,10.5Z" transform="translate(-3 -3)" fill="#fff"/>
</svg>
